<mxfile host="app.diagrams.net" modified="2024-07-02T21:25:01.149Z" agent="Mozilla/5.0 (Windows NT 10.0; Win64; x64; rv:127.0) Gecko/20100101 Firefox/127.0" version="24.6.4" etag="qIejXc65NkyoQARrXbLz" type="github">
  <diagram name="PÃ¡gina-1" id="_IbqAVy4J_cLaTmy54Ui">
    <mxGraphModel>
      <root>
        <mxCell id="0" />
        <mxCell id="1" parent="0" />
      </root>
    </mxGraphModel>
  </diagram>
</mxfile>
